<?xml version="1.0" standalone="no"?>
<!DOCTYPE svg PUBLIC "-//W3C//DTD SVG 20010904//EN"
 "http://www.w3.org/TR/2001/REC-SVG-20010904/DTD/svg10.dtd">
<svg version="1.0" xmlns="http://www.w3.org/2000/svg"
 width="700.000000pt" height="700.000000pt" viewBox="0 0 700.000000 700.000000"
 preserveAspectRatio="xMidYMid meet">
<metadata>
Created by potrace 1.14, written by Peter Selinger 2001-2017
</metadata>
<g transform="translate(0.000000,700.000000) scale(0.100000,-0.100000)"
fill="#000000" stroke="none">
<path d="M2759 6769 c-186 -44 -337 -170 -555 -466 -209 -283 -228 -307 -319
-401 -98 -103 -235 -210 -485 -382 -361 -248 -407 -287 -722 -618 -309 -324
-373 -399 -454 -523 -118 -179 -159 -309 -151 -479 10 -243 125 -398 522 -705
491 -380 558 -507 585 -1100 9 -219 31 -410 49 -428 5 -5 11 45 14 110 6 135
18 177 60 229 28 34 110 94 128 94 5 0 -4 -25 -17 -55 -19 -41 -28 -84 -35
-159 -12 -140 -35 -199 -106 -277 l-23 -25 43 -83 c23 -46 47 -82 52 -81 18 5
94 111 125 174 43 89 59 163 71 331 15 220 39 301 117 387 l37 41 -50 -5 c-29
-3 -86 -22 -137 -46 -49 -22 -88 -38 -88 -35 0 3 12 28 26 56 57 115 187 246
374 380 110 78 108 76 90 87 -47 30 -135 -6 -252 -105 -43 -36 -78 -59 -78
-52 0 29 34 125 67 192 155 307 400 494 722 550 106 19 271 20 271 3 0 -7 8
-25 18 -41 l18 -27 95 71 c79 59 93 74 91 95 -2 15 24 78 67 165 l70 142 -147
-7 c-244 -11 -210 5 -372 -172 -78 -85 -147 -154 -153 -154 -7 0 -58 14 -115
30 -88 25 -263 62 -404 85 -21 3 -38 9 -38 12 0 4 19 39 42 77 144 246 380
515 613 700 101 80 113 87 145 82 87 -14 383 -18 474 -7 115 15 285 59 385
100 53 22 79 27 91 21 26 -14 45 12 31 39 -42 78 40 167 118 128 l29 -14 83
84 c264 267 621 546 915 716 73 42 81 50 76 72 -7 40 16 82 55 100 35 17 38
17 89 -5 l54 -22 97 42 c273 117 554 172 676 131 44 -15 55 -33 67 -109 23
-140 -38 -397 -161 -678 l-22 -52 23 -46 c26 -54 22 -85 -16 -123 -20 -20 -33
-24 -64 -21 l-39 3 -42 -75 c-155 -273 -370 -550 -702 -904 -86 -92 -97 -107
-88 -125 18 -33 13 -68 -15 -100 -28 -34 -76 -42 -116 -20 -36 19 -89 -47
-143 -176 -84 -202 -115 -362 -115 -591 l0 -151 -37 -49 c-129 -172 -359 -406
-533 -543 -98 -78 -260 -191 -273 -191 -3 0 -8 30 -12 68 -15 161 -27 253 -46
347 l-20 100 157 150 156 150 19 135 c10 74 21 147 23 162 5 28 5 28 -124 -37
-71 -36 -140 -65 -153 -65 -13 0 -43 13 -65 30 -23 16 -45 30 -49 30 -4 0 -45
-37 -90 -82 l-82 -82 57 -44 c31 -24 69 -50 85 -58 25 -14 27 -19 27 -78 0
-186 -91 -437 -215 -595 -98 -125 -332 -306 -500 -386 -132 -64 -133 -63 -67
16 106 125 153 258 121 337 l-14 32 -58 -97 c-183 -310 -323 -418 -582 -449
l-60 -7 67 72 c84 91 126 188 99 230 -14 22 -120 -52 -206 -141 -229 -239
-304 -299 -427 -345 -27 -9 -48 -21 -48 -25 0 -4 19 -32 42 -62 49 -64 41 -66
159 33 110 92 166 122 240 128 33 3 59 2 59 -3 0 -17 -124 -132 -175 -162 -59
-35 -109 -52 -179 -61 l-51 -6 110 -114 c135 -139 230 -219 377 -317 309 -207
608 -295 1188 -349 96 -9 313 -32 483 -51 445 -49 608 -58 780 -45 223 18 361
53 542 141 327 157 634 440 887 815 93 137 152 257 197 399 45 140 65 233 121
551 60 344 96 487 195 770 223 635 241 726 232 1138 -6 283 -24 428 -81 662
-61 249 -135 435 -306 775 -219 433 -423 672 -682 799 -119 59 -191 75 -328
74 -135 0 -234 -19 -496 -94 -297 -84 -374 -100 -529 -106 -122 -5 -151 -3
-223 15 -148 38 -260 103 -512 297 -80 62 -176 134 -215 160 -88 60 -234 130
-303 144 -61 13 -180 13 -233 0z"/>
<path d="M4473 5206 c-84 -27 -159 -91 -187 -158 -15 -35 -15 -37 4 -33 14 3
17 -1 13 -13 -5 -14 -3 -14 16 2 17 16 20 16 16 4 -4 -9 -1 -19 6 -24 8 -4 10
-3 5 4 -15 25 4 10 24 -18 33 -46 21 -66 -40 -66 -38 0 -50 4 -51 16 0 11 -2
11 -6 2 -4 -10 -8 -9 -19 5 -44 59 16 -89 70 -169 25 -38 109 -84 179 -98 55
-11 61 -10 112 15 68 33 138 110 164 181 49 131 9 278 -91 334 -50 28 -154 36
-215 16z"/>
<path d="M3075 3081 c-34 -25 -74 -56 -90 -69 l-29 -23 27 -27 27 -27 80 80
c44 44 80 83 80 87 0 4 -8 11 -17 16 -14 7 -32 -1 -78 -37z"/>
</g>
</svg>
